<svg width="754" height="354" viewBox="0 0 754 354" fill="none" xmlns="http://www.w3.org/2000/svg">
<path d="M31.3359 305.289C29.9453 305.289 28.7109 305.562 27.6328 306.109C26.5703 306.641 25.6719 307.414 24.9375 308.43C24.2188 309.445 23.6719 310.672 23.2969 312.109C22.9219 313.547 22.7344 315.164 22.7344 316.961C22.7344 319.383 23.0312 321.453 23.625 323.172C24.2344 324.875 25.1719 326.18 26.4375 327.086C27.7031 327.977 29.3359 328.422 31.3359 328.422C32.7266 328.422 34.1172 328.266 35.5078 327.953C36.9141 327.641 38.4375 327.195 40.0781 326.617V332.711C38.5625 333.336 37.0703 333.781 35.6016 334.047C34.1328 334.328 32.4844 334.469 30.6562 334.469C27.125 334.469 24.2188 333.742 21.9375 332.289C19.6719 330.82 17.9922 328.773 16.8984 326.148C15.8047 323.508 15.2578 320.43 15.2578 316.914C15.2578 314.32 15.6094 311.945 16.3125 309.789C17.0156 307.633 18.0469 305.766 19.4062 304.188C20.7656 302.609 22.4453 301.391 24.4453 300.531C26.4453 299.672 28.7422 299.242 31.3359 299.242C33.0391 299.242 34.7422 299.461 36.4453 299.898C38.1641 300.32 39.8047 300.906 41.3672 301.656L39.0234 307.562C37.7422 306.953 36.4531 306.422 35.1562 305.969C33.8594 305.516 32.5859 305.289 31.3359 305.289ZM70.6406 320.852C70.6406 323.039 70.3438 324.977 69.75 326.664C69.1719 328.352 68.3203 329.781 67.1953 330.953C66.0859 332.109 64.7422 332.984 63.1641 333.578C61.6016 334.172 59.8359 334.469 57.8672 334.469C56.0234 334.469 54.3281 334.172 52.7812 333.578C51.25 332.984 49.9141 332.109 48.7734 330.953C47.6484 329.781 46.7734 328.352 46.1484 326.664C45.5391 324.977 45.2344 323.039 45.2344 320.852C45.2344 317.945 45.75 315.484 46.7812 313.469C47.8125 311.453 49.2812 309.922 51.1875 308.875C53.0938 307.828 55.3672 307.305 58.0078 307.305C60.4609 307.305 62.6328 307.828 64.5234 308.875C66.4297 309.922 67.9219 311.453 69 313.469C70.0938 315.484 70.6406 317.945 70.6406 320.852ZM52.5234 320.852C52.5234 322.57 52.7109 324.016 53.0859 325.188C53.4609 326.359 54.0469 327.242 54.8438 327.836C55.6406 328.43 56.6797 328.727 57.9609 328.727C59.2266 328.727 60.25 328.43 61.0312 327.836C61.8281 327.242 62.4062 326.359 62.7656 325.188C63.1406 324.016 63.3281 322.57 63.3281 320.852C63.3281 319.117 63.1406 317.68 62.7656 316.539C62.4062 315.383 61.8281 314.516 61.0312 313.938C60.2344 313.359 59.1953 313.07 57.9141 313.07C56.0234 313.07 54.6484 313.719 53.7891 315.016C52.9453 316.312 52.5234 318.258 52.5234 320.852ZM91.4297 307.305C94.2266 307.305 96.4766 308.07 98.1797 309.602C99.8828 311.117 100.734 313.555 100.734 316.914V334H93.5859V318.695C93.5859 316.82 93.2422 315.406 92.5547 314.453C91.8828 313.5 90.8203 313.023 89.3672 313.023C87.1797 313.023 85.6875 313.766 84.8906 315.25C84.0938 316.734 83.6953 318.875 83.6953 321.672V334H76.5469V307.797H82.0078L82.9688 311.148H83.3672C83.9297 310.242 84.625 309.508 85.4531 308.945C86.2969 308.383 87.2266 307.969 88.2422 307.703C89.2734 307.438 90.3359 307.305 91.4297 307.305ZM119.133 328.773C119.914 328.773 120.672 328.695 121.406 328.539C122.156 328.383 122.898 328.188 123.633 327.953V333.273C122.867 333.617 121.914 333.898 120.773 334.117C119.648 334.352 118.414 334.469 117.07 334.469C115.508 334.469 114.102 334.219 112.852 333.719C111.617 333.203 110.641 332.32 109.922 331.07C109.219 329.805 108.867 328.047 108.867 325.797V313.164H105.445V310.141L109.383 307.75L111.445 302.219H116.016V307.797H123.352V313.164H116.016V325.797C116.016 326.797 116.297 327.547 116.859 328.047C117.438 328.531 118.195 328.773 119.133 328.773ZM143.578 307.305C143.938 307.305 144.352 307.328 144.82 307.375C145.305 307.406 145.695 307.453 145.992 307.516L145.453 314.219C145.219 314.141 144.883 314.086 144.445 314.055C144.023 314.008 143.656 313.984 143.344 313.984C142.422 313.984 141.523 314.102 140.648 314.336C139.789 314.57 139.016 314.953 138.328 315.484C137.641 316 137.094 316.688 136.688 317.547C136.297 318.391 136.102 319.43 136.102 320.664V334H128.953V307.797H134.367L135.422 312.203H135.773C136.289 311.312 136.93 310.5 137.695 309.766C138.477 309.016 139.359 308.422 140.344 307.984C141.344 307.531 142.422 307.305 143.578 307.305ZM174.562 320.852C174.562 323.039 174.266 324.977 173.672 326.664C173.094 328.352 172.242 329.781 171.117 330.953C170.008 332.109 168.664 332.984 167.086 333.578C165.523 334.172 163.758 334.469 161.789 334.469C159.945 334.469 158.25 334.172 156.703 333.578C155.172 332.984 153.836 332.109 152.695 330.953C151.57 329.781 150.695 328.352 150.07 326.664C149.461 324.977 149.156 323.039 149.156 320.852C149.156 317.945 149.672 315.484 150.703 313.469C151.734 311.453 153.203 309.922 155.109 308.875C157.016 307.828 159.289 307.305 161.93 307.305C164.383 307.305 166.555 307.828 168.445 308.875C170.352 309.922 171.844 311.453 172.922 313.469C174.016 315.484 174.562 317.945 174.562 320.852ZM156.445 320.852C156.445 322.57 156.633 324.016 157.008 325.188C157.383 326.359 157.969 327.242 158.766 327.836C159.562 328.43 160.602 328.727 161.883 328.727C163.148 328.727 164.172 328.43 164.953 327.836C165.75 327.242 166.328 326.359 166.688 325.188C167.062 324.016 167.25 322.57 167.25 320.852C167.25 319.117 167.062 317.68 166.688 316.539C166.328 315.383 165.75 314.516 164.953 313.938C164.156 313.359 163.117 313.07 161.836 313.07C159.945 313.07 158.57 313.719 157.711 315.016C156.867 316.312 156.445 318.258 156.445 320.852ZM187.617 334H180.469V297.531H187.617V334ZM205.945 307.305C208.367 307.305 210.453 307.773 212.203 308.711C213.953 309.633 215.305 310.977 216.258 312.742C217.211 314.508 217.688 316.664 217.688 319.211V322.68H200.789C200.867 324.695 201.469 326.281 202.594 327.438C203.734 328.578 205.312 329.148 207.328 329.148C209 329.148 210.531 328.977 211.922 328.633C213.312 328.289 214.742 327.773 216.211 327.086V332.617C214.914 333.258 213.555 333.727 212.133 334.023C210.727 334.32 209.016 334.469 207 334.469C204.375 334.469 202.047 333.984 200.016 333.016C198 332.047 196.414 330.57 195.258 328.586C194.117 326.602 193.547 324.102 193.547 321.086C193.547 318.023 194.062 315.477 195.094 313.445C196.141 311.398 197.594 309.867 199.453 308.852C201.312 307.82 203.477 307.305 205.945 307.305ZM205.992 312.391C204.602 312.391 203.445 312.836 202.523 313.727C201.617 314.617 201.094 316.016 200.953 317.922H210.984C210.969 316.859 210.773 315.914 210.398 315.086C210.039 314.258 209.492 313.602 208.758 313.117C208.039 312.633 207.117 312.391 205.992 312.391ZM244.266 334.469C241.344 334.469 238.961 333.328 237.117 331.047C235.289 328.75 234.375 325.383 234.375 320.945C234.375 316.461 235.305 313.07 237.164 310.773C239.023 308.461 241.453 307.305 244.453 307.305C245.703 307.305 246.805 307.477 247.758 307.82C248.711 308.164 249.531 308.625 250.219 309.203C250.922 309.781 251.516 310.43 252 311.148H252.234C252.141 310.648 252.023 309.914 251.883 308.945C251.758 307.961 251.695 306.953 251.695 305.922V297.531H258.867V334H253.383L252 330.602H251.695C251.242 331.32 250.672 331.977 249.984 332.57C249.312 333.148 248.508 333.609 247.57 333.953C246.633 334.297 245.531 334.469 244.266 334.469ZM246.773 328.773C248.727 328.773 250.102 328.195 250.898 327.039C251.711 325.867 252.141 324.109 252.188 321.766V320.992C252.188 318.445 251.797 316.5 251.016 315.156C250.234 313.797 248.781 313.117 246.656 313.117C245.078 313.117 243.844 313.797 242.953 315.156C242.062 316.516 241.617 318.477 241.617 321.039C241.617 323.602 242.062 325.531 242.953 326.828C243.859 328.125 245.133 328.773 246.773 328.773ZM277.148 307.305C279.57 307.305 281.656 307.773 283.406 308.711C285.156 309.633 286.508 310.977 287.461 312.742C288.414 314.508 288.891 316.664 288.891 319.211V322.68H271.992C272.07 324.695 272.672 326.281 273.797 327.438C274.938 328.578 276.516 329.148 278.531 329.148C280.203 329.148 281.734 328.977 283.125 328.633C284.516 328.289 285.945 327.773 287.414 327.086V332.617C286.117 333.258 284.758 333.727 283.336 334.023C281.93 334.32 280.219 334.469 278.203 334.469C275.578 334.469 273.25 333.984 271.219 333.016C269.203 332.047 267.617 330.57 266.461 328.586C265.32 326.602 264.75 324.102 264.75 321.086C264.75 318.023 265.266 315.477 266.297 313.445C267.344 311.398 268.797 309.867 270.656 308.852C272.516 307.82 274.68 307.305 277.148 307.305ZM277.195 312.391C275.805 312.391 274.648 312.836 273.727 313.727C272.82 314.617 272.297 316.016 272.156 317.922H282.188C282.172 316.859 281.977 315.914 281.602 315.086C281.242 314.258 280.695 313.602 279.961 313.117C279.242 312.633 278.32 312.391 277.195 312.391ZM327.469 334H307.734V299.734H327.469V305.688H315V313.211H326.602V319.164H315V328H327.469V334ZM352.359 326.219C352.359 328 351.938 329.508 351.094 330.742C350.266 331.961 349.023 332.891 347.367 333.531C345.711 334.156 343.648 334.469 341.18 334.469C339.352 334.469 337.781 334.352 336.469 334.117C335.172 333.883 333.859 333.492 332.531 332.945V327.039C333.953 327.68 335.477 328.211 337.102 328.633C338.742 329.039 340.18 329.242 341.414 329.242C342.805 329.242 343.797 329.039 344.391 328.633C345 328.211 345.305 327.664 345.305 326.992C345.305 326.555 345.18 326.164 344.93 325.82C344.695 325.461 344.18 325.062 343.383 324.625C342.586 324.172 341.336 323.586 339.633 322.867C337.992 322.18 336.641 321.484 335.578 320.781C334.531 320.078 333.75 319.25 333.234 318.297C332.734 317.328 332.484 316.102 332.484 314.617C332.484 312.195 333.422 310.375 335.297 309.156C337.188 307.922 339.711 307.305 342.867 307.305C344.492 307.305 346.039 307.469 347.508 307.797C348.992 308.125 350.516 308.648 352.078 309.367L349.922 314.523C348.625 313.961 347.398 313.5 346.242 313.141C345.102 312.781 343.938 312.602 342.75 312.602C341.703 312.602 340.914 312.742 340.383 313.023C339.852 313.305 339.586 313.734 339.586 314.312C339.586 314.734 339.719 315.109 339.984 315.438C340.266 315.766 340.797 316.133 341.578 316.539C342.375 316.93 343.539 317.438 345.07 318.062C346.555 318.672 347.844 319.312 348.938 319.984C350.031 320.641 350.875 321.461 351.469 322.445C352.062 323.414 352.359 324.672 352.359 326.219ZM368.977 328.773C369.758 328.773 370.516 328.695 371.25 328.539C372 328.383 372.742 328.188 373.477 327.953V333.273C372.711 333.617 371.758 333.898 370.617 334.117C369.492 334.352 368.258 334.469 366.914 334.469C365.352 334.469 363.945 334.219 362.695 333.719C361.461 333.203 360.484 332.32 359.766 331.07C359.062 329.805 358.711 328.047 358.711 325.797V313.164H355.289V310.141L359.227 307.75L361.289 302.219H365.859V307.797H373.195V313.164H365.859V325.797C365.859 326.797 366.141 327.547 366.703 328.047C367.281 328.531 368.039 328.773 368.977 328.773ZM402.609 320.852C402.609 323.039 402.312 324.977 401.719 326.664C401.141 328.352 400.289 329.781 399.164 330.953C398.055 332.109 396.711 332.984 395.133 333.578C393.57 334.172 391.805 334.469 389.836 334.469C387.992 334.469 386.297 334.172 384.75 333.578C383.219 332.984 381.883 332.109 380.742 330.953C379.617 329.781 378.742 328.352 378.117 326.664C377.508 324.977 377.203 323.039 377.203 320.852C377.203 317.945 377.719 315.484 378.75 313.469C379.781 311.453 381.25 309.922 383.156 308.875C385.062 307.828 387.336 307.305 389.977 307.305C392.43 307.305 394.602 307.828 396.492 308.875C398.398 309.922 399.891 311.453 400.969 313.469C402.062 315.484 402.609 317.945 402.609 320.852ZM384.492 320.852C384.492 322.57 384.68 324.016 385.055 325.188C385.43 326.359 386.016 327.242 386.812 327.836C387.609 328.43 388.648 328.727 389.93 328.727C391.195 328.727 392.219 328.43 393 327.836C393.797 327.242 394.375 326.359 394.734 325.188C395.109 324.016 395.297 322.57 395.297 320.852C395.297 319.117 395.109 317.68 394.734 316.539C394.375 315.383 393.797 314.516 393 313.938C392.203 313.359 391.164 313.07 389.883 313.07C387.992 313.07 386.617 313.719 385.758 315.016C384.914 316.312 384.492 318.258 384.492 320.852ZM424.242 345.531V334.539C424.242 333.883 424.266 333.227 424.312 332.57C424.375 331.898 424.453 331.242 424.547 330.602H424.242C423.57 331.68 422.641 332.594 421.453 333.344C420.281 334.094 418.734 334.469 416.812 334.469C413.859 334.469 411.469 333.328 409.641 331.047C407.828 328.75 406.922 325.383 406.922 320.945C406.922 317.961 407.344 315.461 408.188 313.445C409.031 311.414 410.203 309.883 411.703 308.852C413.219 307.82 414.969 307.305 416.953 307.305C418.875 307.305 420.43 307.68 421.617 308.43C422.82 309.164 423.797 310.07 424.547 311.148H424.734L425.367 307.797H431.414V345.531H424.242ZM419.367 328.867C420.68 328.867 421.719 328.609 422.484 328.094C423.266 327.578 423.828 326.805 424.172 325.773C424.516 324.727 424.703 323.422 424.734 321.859V320.992C424.734 318.445 424.344 316.5 423.562 315.156C422.781 313.797 421.344 313.117 419.25 313.117C417.547 313.117 416.281 313.797 415.453 315.156C414.625 316.516 414.211 318.477 414.211 321.039C414.211 323.648 414.633 325.609 415.477 326.922C416.32 328.219 417.617 328.867 419.367 328.867ZM462.938 307.797V334H457.453L456.492 330.648H456.117C455.555 331.539 454.852 332.266 454.008 332.828C453.164 333.391 452.234 333.805 451.219 334.07C450.203 334.336 449.148 334.469 448.055 334.469C446.18 334.469 444.547 334.141 443.156 333.484C441.766 332.812 440.68 331.773 439.898 330.367C439.133 328.961 438.75 327.133 438.75 324.883V307.797H445.898V323.102C445.898 324.977 446.234 326.391 446.906 327.344C447.578 328.297 448.648 328.773 450.117 328.773C451.57 328.773 452.711 328.445 453.539 327.789C454.367 327.117 454.945 326.141 455.273 324.859C455.617 323.562 455.789 321.984 455.789 320.125V307.797H462.938ZM481.242 307.305C483.664 307.305 485.75 307.773 487.5 308.711C489.25 309.633 490.602 310.977 491.555 312.742C492.508 314.508 492.984 316.664 492.984 319.211V322.68H476.086C476.164 324.695 476.766 326.281 477.891 327.438C479.031 328.578 480.609 329.148 482.625 329.148C484.297 329.148 485.828 328.977 487.219 328.633C488.609 328.289 490.039 327.773 491.508 327.086V332.617C490.211 333.258 488.852 333.727 487.43 334.023C486.023 334.32 484.312 334.469 482.297 334.469C479.672 334.469 477.344 333.984 475.312 333.016C473.297 332.047 471.711 330.57 470.555 328.586C469.414 326.602 468.844 324.102 468.844 321.086C468.844 318.023 469.359 315.477 470.391 313.445C471.438 311.398 472.891 309.867 474.75 308.852C476.609 307.82 478.773 307.305 481.242 307.305ZM481.289 312.391C479.898 312.391 478.742 312.836 477.82 313.727C476.914 314.617 476.391 316.016 476.25 317.922H486.281C486.266 316.859 486.07 315.914 485.695 315.086C485.336 314.258 484.789 313.602 484.055 313.117C483.336 312.633 482.414 312.391 481.289 312.391ZM519.562 334.469C516.641 334.469 514.258 333.328 512.414 331.047C510.586 328.75 509.672 325.383 509.672 320.945C509.672 316.461 510.602 313.07 512.461 310.773C514.32 308.461 516.75 307.305 519.75 307.305C521 307.305 522.102 307.477 523.055 307.82C524.008 308.164 524.828 308.625 525.516 309.203C526.219 309.781 526.812 310.43 527.297 311.148H527.531C527.438 310.648 527.32 309.914 527.18 308.945C527.055 307.961 526.992 306.953 526.992 305.922V297.531H534.164V334H528.68L527.297 330.602H526.992C526.539 331.32 525.969 331.977 525.281 332.57C524.609 333.148 523.805 333.609 522.867 333.953C521.93 334.297 520.828 334.469 519.562 334.469ZM522.07 328.773C524.023 328.773 525.398 328.195 526.195 327.039C527.008 325.867 527.438 324.109 527.484 321.766V320.992C527.484 318.445 527.094 316.5 526.312 315.156C525.531 313.797 524.078 313.117 521.953 313.117C520.375 313.117 519.141 313.797 518.25 315.156C517.359 316.516 516.914 318.477 516.914 321.039C516.914 323.602 517.359 325.531 518.25 326.828C519.156 328.125 520.43 328.773 522.07 328.773ZM552.445 307.305C554.867 307.305 556.953 307.773 558.703 308.711C560.453 309.633 561.805 310.977 562.758 312.742C563.711 314.508 564.188 316.664 564.188 319.211V322.68H547.289C547.367 324.695 547.969 326.281 549.094 327.438C550.234 328.578 551.812 329.148 553.828 329.148C555.5 329.148 557.031 328.977 558.422 328.633C559.812 328.289 561.242 327.773 562.711 327.086V332.617C561.414 333.258 560.055 333.727 558.633 334.023C557.227 334.32 555.516 334.469 553.5 334.469C550.875 334.469 548.547 333.984 546.516 333.016C544.5 332.047 542.914 330.57 541.758 328.586C540.617 326.602 540.047 324.102 540.047 321.086C540.047 318.023 540.562 315.477 541.594 313.445C542.641 311.398 544.094 309.867 545.953 308.852C547.812 307.82 549.977 307.305 552.445 307.305ZM552.492 312.391C551.102 312.391 549.945 312.836 549.023 313.727C548.117 314.617 547.594 316.016 547.453 317.922H557.484C557.469 316.859 557.273 315.914 556.898 315.086C556.539 314.258 555.992 313.602 555.258 313.117C554.539 312.633 553.617 312.391 552.492 312.391ZM597.539 334L589.289 307.117H589.078C589.109 307.758 589.156 308.727 589.219 310.023C589.297 311.305 589.367 312.672 589.43 314.125C589.492 315.578 589.523 316.891 589.523 318.062V334H583.031V299.734H592.922L601.031 325.938H601.172L609.773 299.734H619.664V334H612.891V317.781C612.891 316.703 612.906 315.461 612.938 314.055C612.984 312.648 613.039 311.312 613.102 310.047C613.164 308.766 613.211 307.805 613.242 307.164H613.031L604.195 334H597.539ZM638.484 307.258C642 307.258 644.695 308.023 646.57 309.555C648.445 311.086 649.383 313.414 649.383 316.539V334H644.391L643.008 330.438H642.82C642.07 331.375 641.305 332.141 640.523 332.734C639.742 333.328 638.844 333.766 637.828 334.047C636.812 334.328 635.578 334.469 634.125 334.469C632.578 334.469 631.188 334.172 629.953 333.578C628.734 332.984 627.773 332.078 627.07 330.859C626.367 329.625 626.016 328.062 626.016 326.172C626.016 323.391 626.992 321.344 628.945 320.031C630.898 318.703 633.828 317.969 637.734 317.828L642.281 317.688V316.539C642.281 315.164 641.922 314.156 641.203 313.516C640.484 312.875 639.484 312.555 638.203 312.555C636.938 312.555 635.695 312.734 634.477 313.094C633.258 313.453 632.039 313.906 630.82 314.453L628.453 309.625C629.844 308.891 631.398 308.312 633.117 307.891C634.852 307.469 636.641 307.258 638.484 307.258ZM642.281 321.859L639.516 321.953C637.203 322.016 635.594 322.43 634.688 323.195C633.797 323.961 633.352 324.969 633.352 326.219C633.352 327.312 633.672 328.094 634.312 328.562C634.953 329.016 635.789 329.242 636.82 329.242C638.352 329.242 639.641 328.789 640.688 327.883C641.75 326.977 642.281 325.688 642.281 324.016V321.859ZM675.047 326.219C675.047 328 674.625 329.508 673.781 330.742C672.953 331.961 671.711 332.891 670.055 333.531C668.398 334.156 666.336 334.469 663.867 334.469C662.039 334.469 660.469 334.352 659.156 334.117C657.859 333.883 656.547 333.492 655.219 332.945V327.039C656.641 327.68 658.164 328.211 659.789 328.633C661.43 329.039 662.867 329.242 664.102 329.242C665.492 329.242 666.484 329.039 667.078 328.633C667.688 328.211 667.992 327.664 667.992 326.992C667.992 326.555 667.867 326.164 667.617 325.82C667.383 325.461 666.867 325.062 666.07 324.625C665.273 324.172 664.023 323.586 662.32 322.867C660.68 322.18 659.328 321.484 658.266 320.781C657.219 320.078 656.438 319.25 655.922 318.297C655.422 317.328 655.172 316.102 655.172 314.617C655.172 312.195 656.109 310.375 657.984 309.156C659.875 307.922 662.398 307.305 665.555 307.305C667.18 307.305 668.727 307.469 670.195 307.797C671.68 308.125 673.203 308.648 674.766 309.367L672.609 314.523C671.312 313.961 670.086 313.5 668.93 313.141C667.789 312.781 666.625 312.602 665.438 312.602C664.391 312.602 663.602 312.742 663.07 313.023C662.539 313.305 662.273 313.734 662.273 314.312C662.273 314.734 662.406 315.109 662.672 315.438C662.953 315.766 663.484 316.133 664.266 316.539C665.062 316.93 666.227 317.438 667.758 318.062C669.242 318.672 670.531 319.312 671.625 319.984C672.719 320.641 673.562 321.461 674.156 322.445C674.75 323.414 675.047 324.672 675.047 326.219ZM698.906 326.219C698.906 328 698.484 329.508 697.641 330.742C696.812 331.961 695.57 332.891 693.914 333.531C692.258 334.156 690.195 334.469 687.727 334.469C685.898 334.469 684.328 334.352 683.016 334.117C681.719 333.883 680.406 333.492 679.078 332.945V327.039C680.5 327.68 682.023 328.211 683.648 328.633C685.289 329.039 686.727 329.242 687.961 329.242C689.352 329.242 690.344 329.039 690.938 328.633C691.547 328.211 691.852 327.664 691.852 326.992C691.852 326.555 691.727 326.164 691.477 325.82C691.242 325.461 690.727 325.062 689.93 324.625C689.133 324.172 687.883 323.586 686.18 322.867C684.539 322.18 683.188 321.484 682.125 320.781C681.078 320.078 680.297 319.25 679.781 318.297C679.281 317.328 679.031 316.102 679.031 314.617C679.031 312.195 679.969 310.375 681.844 309.156C683.734 307.922 686.258 307.305 689.414 307.305C691.039 307.305 692.586 307.469 694.055 307.797C695.539 308.125 697.062 308.648 698.625 309.367L696.469 314.523C695.172 313.961 693.945 313.5 692.789 313.141C691.648 312.781 690.484 312.602 689.297 312.602C688.25 312.602 687.461 312.742 686.93 313.023C686.398 313.305 686.133 313.734 686.133 314.312C686.133 314.734 686.266 315.109 686.531 315.438C686.812 315.766 687.344 316.133 688.125 316.539C688.922 316.93 690.086 317.438 691.617 318.062C693.102 318.672 694.391 319.312 695.484 319.984C696.578 320.641 697.422 321.461 698.016 322.445C698.609 323.414 698.906 324.672 698.906 326.219ZM715.219 307.258C718.734 307.258 721.43 308.023 723.305 309.555C725.18 311.086 726.117 313.414 726.117 316.539V334H721.125L719.742 330.438H719.555C718.805 331.375 718.039 332.141 717.258 332.734C716.477 333.328 715.578 333.766 714.562 334.047C713.547 334.328 712.312 334.469 710.859 334.469C709.312 334.469 707.922 334.172 706.688 333.578C705.469 332.984 704.508 332.078 703.805 330.859C703.102 329.625 702.75 328.062 702.75 326.172C702.75 323.391 703.727 321.344 705.68 320.031C707.633 318.703 710.562 317.969 714.469 317.828L719.016 317.688V316.539C719.016 315.164 718.656 314.156 717.938 313.516C717.219 312.875 716.219 312.555 714.938 312.555C713.672 312.555 712.43 312.734 711.211 313.094C709.992 313.453 708.773 313.906 707.555 314.453L705.188 309.625C706.578 308.891 708.133 308.312 709.852 307.891C711.586 307.469 713.375 307.258 715.219 307.258ZM719.016 321.859L716.25 321.953C713.938 322.016 712.328 322.43 711.422 323.195C710.531 323.961 710.086 324.969 710.086 326.219C710.086 327.312 710.406 328.094 711.047 328.562C711.688 329.016 712.523 329.242 713.555 329.242C715.086 329.242 716.375 328.789 717.422 327.883C718.484 326.977 719.016 325.688 719.016 324.016V321.859ZM751.781 326.219C751.781 328 751.359 329.508 750.516 330.742C749.688 331.961 748.445 332.891 746.789 333.531C745.133 334.156 743.07 334.469 740.602 334.469C738.773 334.469 737.203 334.352 735.891 334.117C734.594 333.883 733.281 333.492 731.953 332.945V327.039C733.375 327.68 734.898 328.211 736.523 328.633C738.164 329.039 739.602 329.242 740.836 329.242C742.227 329.242 743.219 329.039 743.812 328.633C744.422 328.211 744.727 327.664 744.727 326.992C744.727 326.555 744.602 326.164 744.352 325.82C744.117 325.461 743.602 325.062 742.805 324.625C742.008 324.172 740.758 323.586 739.055 322.867C737.414 322.18 736.062 321.484 735 320.781C733.953 320.078 733.172 319.25 732.656 318.297C732.156 317.328 731.906 316.102 731.906 314.617C731.906 312.195 732.844 310.375 734.719 309.156C736.609 307.922 739.133 307.305 742.289 307.305C743.914 307.305 745.461 307.469 746.93 307.797C748.414 308.125 749.938 308.648 751.5 309.367L749.344 314.523C748.047 313.961 746.82 313.5 745.664 313.141C744.523 312.781 743.359 312.602 742.172 312.602C741.125 312.602 740.336 312.742 739.805 313.023C739.273 313.305 739.008 313.734 739.008 314.312C739.008 314.734 739.141 315.109 739.406 315.438C739.688 315.766 740.219 316.133 741 316.539C741.797 316.93 742.961 317.438 744.492 318.062C745.977 318.672 747.266 319.312 748.359 319.984C749.453 320.641 750.297 321.461 750.891 322.445C751.484 323.414 751.781 324.672 751.781 326.219Z" fill="white"/>
<path d="M348.191 76.2305C341.47 76.2305 335.504 77.5521 330.293 80.1953C325.158 82.763 320.815 86.5013 317.266 91.4102C313.792 96.319 311.148 102.247 309.336 109.195C307.523 116.143 306.617 123.96 306.617 132.645C306.617 144.35 308.052 154.357 310.922 162.664C313.867 170.896 318.398 177.202 324.516 181.582C330.633 185.887 338.525 188.039 348.191 188.039C354.913 188.039 361.634 187.284 368.355 185.773C375.152 184.263 382.516 182.111 390.445 179.316V208.77C383.12 211.79 375.908 213.943 368.809 215.227C361.71 216.586 353.742 217.266 344.906 217.266C327.839 217.266 313.792 213.754 302.766 206.73C291.815 199.632 283.697 189.738 278.41 177.051C273.124 164.288 270.48 149.41 270.48 132.418C270.48 119.882 272.18 108.402 275.578 97.9805C278.977 87.5586 283.961 78.5339 290.531 70.9062C297.102 63.2786 305.22 57.388 314.887 53.2344C324.553 49.0807 335.655 47.0039 348.191 47.0039C356.423 47.0039 364.655 48.0612 372.887 50.1758C381.194 52.2148 389.124 55.0469 396.676 58.6719L385.348 87.2188C379.155 84.2734 372.924 81.7057 366.656 79.5156C360.388 77.3255 354.233 76.2305 348.191 76.2305ZM521.172 215H425.789V49.3828H521.172V78.1562H460.906V114.52H516.98V143.293H460.906V186H521.172V215ZM625.957 215L586.082 85.0664H585.062C585.214 88.1628 585.44 92.8451 585.742 99.1133C586.12 105.306 586.46 111.914 586.762 118.938C587.064 125.961 587.215 132.305 587.215 137.969V215H555.836V49.3828H603.641L642.836 176.031H643.516L685.09 49.3828H732.895V215H700.156V136.609C700.156 131.398 700.232 125.395 700.383 118.598C700.609 111.801 700.874 105.344 701.176 99.2266C701.478 93.0339 701.704 88.3893 701.855 85.293H700.836L658.129 215H625.957Z" fill="white"/>
<path d="M125.478 117.188V8.10547C125.478 3.71094 128.707 0 132.859 0C189.923 0 236.193 48.9746 236.193 109.375C236.193 113.77 232.687 117.188 228.535 117.188H125.478ZM0 132.812C0 73.584 41.5645 24.5605 95.4921 16.748C99.7362 16.1133 103.334 19.7266 103.334 24.2676V140.625L175.53 217.041C178.621 220.312 178.39 225.684 174.838 228.32C156.755 241.992 134.612 250 110.716 250C49.5913 250 0 197.559 0 132.812ZM242.836 140.625C247.126 140.625 250.494 144.434 249.94 148.926C246.388 176.221 233.979 200.488 215.849 218.408C213.081 221.143 208.745 220.947 206.069 218.066L132.859 140.625H242.836Z" fill="white"/>
</svg>
