<svg width="182" height="50" viewBox="0 0 182 50" fill="none" xmlns="http://www.w3.org/2000/svg">
<path d="M83.8672 15.2891C82.4766 15.2891 81.2422 15.5625 80.1641 16.1094C79.1016 16.6406 78.2031 17.4141 77.4688 18.4297C76.75 19.4453 76.2031 20.6719 75.8281 22.1094C75.4531 23.5469 75.2656 25.1641 75.2656 26.9609C75.2656 29.3828 75.5625 31.4531 76.1562 33.1719C76.7656 34.875 77.7031 36.1797 78.9688 37.0859C80.2344 37.9766 81.8672 38.4219 83.8672 38.4219C85.2578 38.4219 86.6484 38.2656 88.0391 37.9531C89.4453 37.6406 90.9688 37.1953 92.6094 36.6172V42.7109C91.0938 43.3359 89.6016 43.7812 88.1328 44.0469C86.6641 44.3281 85.0156 44.4688 83.1875 44.4688C79.6562 44.4688 76.75 43.7422 74.4688 42.2891C72.2031 40.8203 70.5234 38.7734 69.4297 36.1484C68.3359 33.5078 67.7891 30.4297 67.7891 26.9141C67.7891 24.3203 68.1406 21.9453 68.8438 19.7891C69.5469 17.6328 70.5781 15.7656 71.9375 14.1875C73.2969 12.6094 74.9766 11.3906 76.9766 10.5312C78.9766 9.67187 81.2734 9.24219 83.8672 9.24219C85.5703 9.24219 87.2734 9.46094 88.9766 9.89844C90.6953 10.3203 92.3359 10.9062 93.8984 11.6562L91.5547 17.5625C90.2734 16.9531 88.9844 16.4219 87.6875 15.9688C86.3906 15.5156 85.1172 15.2891 83.8672 15.2891ZM119.656 44H99.9219V9.73438H119.656V15.6875H107.188V23.2109H118.789V29.1641H107.188V38H119.656V44ZM141.336 44L133.086 17.1172H132.875C132.906 17.7578 132.953 18.7266 133.016 20.0234C133.094 21.3047 133.164 22.6719 133.227 24.125C133.289 25.5781 133.32 26.8906 133.32 28.0625V44H126.828V9.73438H136.719L144.828 35.9375H144.969L153.57 9.73438H163.461V44H156.688V27.7812C156.688 26.7031 156.703 25.4609 156.734 24.0547C156.781 22.6484 156.836 21.3125 156.898 20.0469C156.961 18.7656 157.008 17.8047 157.039 17.1641H156.828L147.992 44H141.336Z" fill="white"/>
<path d="M25.0955 23.4375V1.62109C25.0955 0.742188 25.7414 0 26.5717 0C37.9846 0 47.2386 9.79492 47.2386 21.875C47.2386 22.7539 46.5374 23.4375 45.7071 23.4375H25.0955ZM0 26.5625C0 14.7168 8.31289 4.91211 19.0984 3.34961C19.9472 3.22266 20.6669 3.94531 20.6669 4.85352V28.125L35.106 43.4082C35.7242 44.0625 35.6781 45.1367 34.9677 45.6641C31.3509 48.3984 26.9223 50 22.1431 50C9.91827 50 0 39.5117 0 26.5625ZM48.5672 28.125C49.4253 28.125 50.0988 28.8867 49.9881 29.7852C49.2776 35.2441 46.7958 40.0977 43.1698 43.6816C42.6162 44.2285 41.749 44.1895 41.2139 43.6133L26.5717 28.125H48.5672Z" fill="white"/>
</svg>
